<?xml version="1.0" encoding="UTF-8"?>
<svg version="1.1" viewBox="0 0 100 100" xmlns="http://www.w3.org/2000/svg" xmlns:osb="http://www.openswatchbook.org/uri/2009/osb">
    <title>Flare Programming Language</title>
    <defs>
        <filter id="d" color-interpolation-filters="sRGB">
            <feGaussianBlur in="SourceGraphic" result="result3" stdDeviation="1.5" />
            <feComponentTransfer in="result3" result="result1">
                <feFuncR tableValues="0 0.1 0.2 0.3 0.4 0.5 0.6 0.7 0.8 0.9 1" type="discrete" />
                <feFuncG tableValues="0 0.1 0.2 0.3 0.4 0.5 0.6 0.7 0.8 0.9 1" type="discrete" />
                <feFuncB tableValues="0 0.1 0.2 0.3 0.4 0.5 0.6 0.7 0.8 0.9 1" type="discrete" />
            </feComponentTransfer>
            <feGaussianBlur result="result5" stdDeviation="0.01" />
            <feBlend in="result5" in2="result5" mode="lighten" result="result6" />
            <feColorMatrix in="result6" result="result2" type="luminanceToAlpha" />
            <feSpecularLighting in="result2" result="result9" specularExponent="20" surfaceScale="5">
                <feDistantLight azimuth="180" elevation="90" />
            </feSpecularLighting>
            <feComposite in="result9" in2="result6" k1="0.4" k3="0.7" operator="arithmetic" result="result3" />
            <feBlend in="result3" in2="result1" result="result8" />
            <feComposite in="result8" in2="SourceGraphic" operator="in" result="result7" />
        </filter>
        <filter id="c" color-interpolation-filters="sRGB">
            <feGaussianBlur in="SourceGraphic" result="result3" stdDeviation="1.5" />
            <feComponentTransfer in="result3" result="result1">
                <feFuncR tableValues="0 0.1 0.2 0.3 0.4 0.5 0.6 0.7 0.8 0.9 1" type="discrete" />
                <feFuncG tableValues="0 0.1 0.2 0.3 0.4 0.5 0.6 0.7 0.8 0.9 1" type="discrete" />
                <feFuncB tableValues="0 0.1 0.2 0.3 0.4 0.5 0.6 0.7 0.8 0.9 1" type="discrete" />
            </feComponentTransfer>
            <feGaussianBlur result="result5" stdDeviation="0.01" />
            <feBlend in="result5" in2="result5" mode="lighten" result="result6" />
            <feColorMatrix in="result6" result="result2" type="luminanceToAlpha" />
            <feSpecularLighting in="result2" result="result9" specularExponent="20" surfaceScale="5">
                <feDistantLight azimuth="180" elevation="90" />
            </feSpecularLighting>
            <feComposite in="result9" in2="result6" k1="0.4" k3="0.7" operator="arithmetic" result="result3" />
            <feBlend in="result3" in2="result1" result="result8" />
            <feComposite in="result8" in2="SourceGraphic" operator="in" result="result7" />
        </filter>
        <filter id="b" color-interpolation-filters="sRGB">
            <feGaussianBlur in="SourceGraphic" result="result3" stdDeviation="1.5" />
            <feComponentTransfer in="result3" result="result1">
                <feFuncR tableValues="0 0.1 0.2 0.3 0.4 0.5 0.6 0.7 0.8 0.9 1" type="discrete" />
                <feFuncG tableValues="0 0.1 0.2 0.3 0.4 0.5 0.6 0.7 0.8 0.9 1" type="discrete" />
                <feFuncB tableValues="0 0.1 0.2 0.3 0.4 0.5 0.6 0.7 0.8 0.9 1" type="discrete" />
            </feComponentTransfer>
            <feGaussianBlur result="result5" stdDeviation="0.01" />
            <feBlend in="result5" in2="result5" mode="lighten" result="result6" />
            <feColorMatrix in="result6" result="result2" type="luminanceToAlpha" />
            <feSpecularLighting in="result2" result="result9" specularExponent="20" surfaceScale="5">
                <feDistantLight azimuth="180" elevation="90" />
            </feSpecularLighting>
            <feComposite in="result9" in2="result6" k1="0.4" k3="0.7" operator="arithmetic" result="result3" />
            <feBlend in="result3" in2="result1" result="result8" />
            <feComposite in="result8" in2="SourceGraphic" operator="in" result="result7" />
        </filter>
        <filter id="a" color-interpolation-filters="sRGB">
            <feGaussianBlur in="SourceGraphic" result="result3" stdDeviation="1.5" />
            <feComponentTransfer in="result3" result="result1">
                <feFuncR tableValues="0 0.1 0.2 0.3 0.4 0.5 0.6 0.7 0.8 0.9 1" type="discrete" />
                <feFuncG tableValues="0 0.1 0.2 0.3 0.4 0.5 0.6 0.7 0.8 0.9 1" type="discrete" />
                <feFuncB tableValues="0 0.1 0.2 0.3 0.4 0.5 0.6 0.7 0.8 0.9 1" type="discrete" />
            </feComponentTransfer>
            <feGaussianBlur result="result5" stdDeviation="0.01" />
            <feBlend in="result5" in2="result5" mode="lighten" result="result6" />
            <feColorMatrix in="result6" result="result2" type="luminanceToAlpha" />
            <feSpecularLighting in="result2" result="result9" specularExponent="20" surfaceScale="5">
                <feDistantLight azimuth="180" elevation="90" />
            </feSpecularLighting>
            <feComposite in="result9" in2="result6" k1="0.4" k3="0.7" operator="arithmetic" result="result3" />
            <feBlend in="result3" in2="result1" result="result8" />
            <feComposite in="result8" in2="SourceGraphic" operator="in" result="result7" />
        </filter>
    </defs>
    <g transform="translate(0 -952.36)">
        <path d="m63.771 956.38c-14.229 3.048-22.283 10.027-26.786 17.872-4.4454 7.7452-5.4604 16.242-5.9697 22.746-4.2623-2.8573-3.5413-7.8654-3.063-10.436 0.0508-1.3318-1.2689-1.502-1.844-0.71863-3.0444 5.1889-6.3436 11.534-8.0013 18.403-1.57 6.5058-1.5422 13.525 1.5315 20.403-1.4687 0.1549-3.494-0.5558-4.9383-1.9996-0.83915-0.7283-1.8238-0.091-1.6878 0.9686 2.0618 7.3479 7.9473 13.502 15.002 17.841 7.0551 4.3388 15.32 6.9051 22.41 6.9051 7.1299 0 15.356-3.6167 22.285-8.1861 6.9287-4.5694 12.544-9.9968 14.221-14.466 0.35684-1.2686-0.74045-1.566-1.6565-1.0624-2.9395 2.9386-5.8325 4.6926-8.1888 5.3741 4.2308-5.721 6.8122-10.25 7.7825-13.748 1.088-3.9224 0.46611-6.8269-0.75012-9.1235-1.2162-2.2966-2.9271-4.0081-4.0632-5.8428-1.1361-1.8346-1.7885-3.709-1.0939-6.7176 0.0337-1.2369-1.0936-1.296-1.6878-0.93734-2.4965 2.4957-3.7634 4.3776-5.2821 8.2486-4.0052-8.817-7.1946-15.465-8.6577-21.653-1.5863-6.7089-1.3391-13.206 1.6253-22.59 0.39349-1.0455-0.47122-1.3761-1.1877-1.281zm-1.1877 2.4684c-2.4991 8.6677-2.7422 15.297-1.1877 21.871 1.6643 7.0388 5.1963 14.078 9.6891 24.058 0.3381 0.7072 1.5794 0.6441 1.844-0.094 1.3961-4.187 2.4415-5.8229 3.8444-7.4362 0.0959 2.0008 0.71539 3.674 1.594 5.0929 1.3018 2.1022 2.9665 3.7963 4.0006 5.749s1.5374 4.141 0.56259 7.655c-0.97476 3.5139-3.5134 8.3052-8.7202 14.997-0.46795 0.5846 0.0325 1.6251 0.78137 1.6248 1.9641 0 4.1539-0.8164 6.4386-2.1872-3.689 3.6141-7.0123 6.6889-10.846 8.9673 2.2562-10.97-2.6043-21.231-7.97-31.026-5.7718-10.536-12.106-20.657-11.627-30.714 0.0612-1.0192-0.88758-1.297-1.6253-0.81236-8.729 7.1862-10.619 15.322-11.127 22.434-0.25408 3.556-0.19738 6.8726-0.50008 9.7172-0.26921 2.5297-0.91321 4.5913-2.1254 6.2801-1.9109-2.4216-1.7143-6.3866-1.6253-8.5298-0.37148-1.9327-2.1998-1.0936-3.1568 0.25-2.3331 3.6437-3.191 8.5214-3.6256 12.248-0.73358 6.5123-0.37499 14.392 2.5629 21.153-5.9617-3.6655-11.146-8.9524-13.596-14.154 1.7528 0.805 3.6221 1.0641 5.2508 0.25 0.47683-0.2265 0.70129-0.8698 0.46882-1.3436-3.3787-6.7553-3.3938-13.633-1.8128-20.184 1.2009-4.9762 3.3836-9.5666 5.6572-13.81 0.32973 3.8692 1.9973 7.3782 4.907 8.0611 1.3776 0.20819 2.0981-0.51191 2.3441-1.531 0.49737-6.4637 1.5022-14.781 5.7509-22.184 4.061-7.0754 11.21-13.285 23.848-16.403zm-13.533 20.871c0.45476 10.063 6.5052 19.678 11.814 29.37 5.655 10.323 10.369 20.61 7.2512 31.526-1.615 0.9174-3.2716 1.7898-4.9383 2.5309 1.1962-3.1411 1.3608-6.3967 0.84389-9.6234-0.66818-4.1707-2.4152-8.3296-4.5007-12.373-4.171-8.0866-9.5984-15.861-10.533-21.934-0.19838-0.78068-0.95922-1.0179-1.6253-0.62489-2.683 2.1457-4.0581 4.8341-4.6258 7.6549-1.0398 5.8016 0.65459 11.215 1.1564 16.685 0.19507 2.2426 0.0181 4.1013-0.65636 5.5303-1.9197 0.1502-2.6057-2.4046-3.3443-3.5619-0.92001-1.0246-2.0726-0.3986-2.813 0.4687-1.4757 2.3563-1.4983 5.5779-1.4065 7.9674 0.15014 3.5467 0.86907 7.5168 2.2504 10.654-1.7273-0.6142-3.4177-1.3582-5.0946-2.1871-3.8088-6.7092-4.4544-15.51-3.6568-22.59 0.58716-3.5694 1.0813-7.3439 2.7504-10.311 0.029 2.9412 0.53009 5.4672 2.3441 7.5925 0.97396 0.798 1.4842 1.0293 2.4692 0.5311 1.9436-2.2205 2.6781-5.0315 3.0005-8.0611 0.32241-3.0296 0.25409-6.3367 0.50009-9.7796 0.76226-9.8626 3.7569-14.798 8.8139-19.465zm-1.5002 21.653c1.6536 6.4393 6.4675 13.469 10.189 20.684 2.0401 3.9553 3.6999 7.9513 4.3132 11.779 0.58305 3.6393 0.23126 7.0978-1.6253 10.467-3.7115 3.0294-17.475 2.431-19.784 0.5312-1.6998-2.7644-2.7977-7.5392-2.9692-11.592-0.0587-2.3955-0.0572-4.5026 0.93765-6.4989 0.96629 1.9261 1.9596 3.2814 3.8756 3.8118 0.88505 0.1233 1.7982-0.1404 2.3754-0.7186 1.1656-2.0391 1.2575-4.4933 1.0314-7.0925-0.45181-5.4825-2.1979-10.973-1.219-16.122 0.39511-1.9633 1.3942-3.6658 2.8755-5.2491z" color="#000000" fill="none" filter="url(#d)" overflow="visible" style="block-progression:tb;text-indent:0;text-transform:none" />
        <path transform="translate(0 952.36)" d="m27.48 86.148c-4.0107-2.8673-8.0201-7.0296-10.048-10.431-0.5404-0.90652-0.95206-1.6787-0.91479-1.716 0.03727-0.03727 0.57864 0.06666 1.203 0.23094 1.3527 0.3559 2.8371 0.22939 3.7381-0.31856 0.5342-0.32487 0.60339-0.45684 0.51984-0.9916-0.053-0.33927-0.41426-1.3773-0.80278-2.3067-2.8508-6.8196-2.644-14.755 0.60872-23.356 0.88297-2.3348 3.6701-8.3028 3.8115-8.1614 0.04199 0.04199 0.20683 0.70211 0.3663 1.4669 0.80161 3.8445 3.4937 6.7043 5.6914 6.0458 1.0838-0.32471 1.3449-0.86904 1.5615-3.2553 0.86755-9.5568 2.9496-16.434 6.7011-22.136 3.5915-5.4582 9.2544-9.8731 16.069-12.528 1.7672-0.68843 5.8332-1.9853 6.2366-1.9892 0.12769-0.00123-9.63e-4 0.79575-0.33352 2.0669-0.90133 3.4447-1.3399 6.4488-1.4567 9.977-0.20301 6.1346 0.74492 10.782 3.7206 18.242 1.2001 3.0084 6.4767 14.822 6.9324 15.52 0.28317 0.43404 1.092 0.58295 1.5538 0.28606 0.12109-0.07785 0.52268-0.92574 0.89244-1.8842 0.83291-2.159 1.6467-3.7757 2.4661-4.8993l0.62847-0.86182 0.25157 1.2333c0.35929 1.7614 1.3286 3.6595 3.0407 5.9541 0.81894 1.0976 1.7533 2.4253 2.0764 2.9503 2.9084 4.7267 0.9757 11.088-6.4054 21.082-1.7211 2.3305-1.7789 2.4483-1.5006 3.0591 0.12462 0.27352 0.42816 0.5479 0.67454 0.60974 0.65766 0.16506 2.569-0.21932 3.957-0.79576 0.66706-0.27705 1.3429-0.54843 1.5019-0.60307 0.3943-0.13554-2.3922 2.5123-4.5846 4.3564-1.7832 1.4999-4.6532 3.5463-4.7867 3.4129-0.03854-0.03854 0.02808-0.79942 0.14805-1.6908 0.1329-0.9875 0.17537-2.8632 0.10871-4.8006-0.25663-7.4584-2.5774-13.693-10.256-27.553-7.3632-13.29-9.7229-19.539-9.7229-25.747 0-1.7409-0.04955-2.0474-0.38534-2.3832-0.47526-0.47526-0.70901-0.48031-1.445-0.03123-0.96103 0.58636-3.9873 3.7122-5.3438 5.5196-1.4122 1.8816-3.1164 5.0349-3.8805 7.1802-1.3185 3.7018-1.7564 6.6106-2.1399 14.215-0.29489 5.8483-0.50938 7.46-1.2373 9.2972-0.59695 1.5066-0.97404 2.0224-1.2881 1.7618-0.75267-0.62466-1.428-3.8906-1.428-6.9061 0-1.3928-0.06201-1.7464-0.35235-2.0091-0.48795-0.44159-1.2266-0.39845-1.8856 0.11012-0.79085 0.61037-0.95887 0.84189-1.7861 2.4611-1.973 3.8619-3.1048 9.8519-3.1048 16.432 0 5.1844 0.54804 8.9384 1.8977 12.999 0.39625 1.1922 0.67326 2.1655 0.61559 2.163-0.05767-0.0025-0.9059-0.57726-1.8849-1.2772z" fill="#f60" filter="url(#c)" />
        <path transform="translate(0 952.36)" d="m35.274 90.445c-2.597-1.1347-2.5977-1.1354-3.8432-4.2381-1.0423-2.5965-1.8032-5.7373-2.1859-9.0235-0.7404-6.3582 0.2471-15.018 2.219-19.459l0.36989-0.83312 0.01695 0.77069c0.04841 2.2002 1.1524 5.255 2.3219 6.4244 1.5853 1.5853 2.6948 1.1667 4.0563-1.5305 1.2291-2.4348 1.6192-4.8188 1.9201-11.734 0.11297-2.5963 0.33697-5.6742 0.49779-6.8399 0.88305-6.4009 2.9952-10.958 7.0094-15.125l1.2066-1.2524 0.33258 2.2157c0.98706 6.576 3.1109 11.726 9.774 23.699 4.8287 8.6767 6.5746 12.346 8.1603 17.148 2.0192 6.1151 2.4088 11.475 1.1847 16.298l-0.32736 1.2899-2.1881 1.1401c-1.2035 0.62706-2.2223 1.1059-2.2642 1.0641-0.04182-0.04181 0.09252-0.73504 0.29852-1.5405 1.2991-5.0794 0.24758-10.845-3.3462-18.348-0.65985-1.3776-2.7481-5.2792-4.6406-8.6702-4.5399-8.1349-5.8164-10.883-6.5772-14.16-0.35125-1.5128-0.51748-1.7357-1.2941-1.7357-0.87513 0-3.1188 2.3644-4.0549 4.273-1.8421 3.7561-2.0311 7.5563-0.76486 15.38 0.65472 4.0451 0.81033 7.8317 0.38234 9.304-0.1813 0.62365-0.4304 1.1003-0.57501 1.1003-0.59946 0-1.5763-0.9387-2.2254-2.1385-0.95187-1.7595-1.1023-1.9076-1.9378-1.9076-1.3054 0-2.1736 1.0655-2.7823 3.4146-0.89393 3.4498-0.38604 9.8733 1.1401 14.42 0.27382 0.81568 0.473 1.5064 0.44263 1.535-0.03037 0.02856-1.0771-0.39456-2.3261-0.94025z" fill="#fc0" filter="url(#b)" />
        <path transform="translate(0 952.36)" d="m46.16 93.773c-2.0786-0.20083-3.6032-0.51594-4.6062-0.95208-0.66051-0.28721-0.9117-0.5568-1.3742-1.4748-0.81756-1.6227-1.5418-4.0623-1.991-6.7066-0.50468-2.9707-0.44864-8.0059 0.10297-9.2526l0.341-0.77069 0.30008 0.57802c0.97791 1.8837 3.049 3.354 4.3344 3.0771 1.684-0.36277 2.3429-1.4118 2.7091-4.313 0.23294-1.8455 0.01092-4.3446-0.92577-10.421-0.55228-3.5826-0.67095-7.324-0.29027-9.1519 0.13241-0.63582 0.48996-1.6762 0.79456-2.3121 0.68419-1.4282 1.8678-2.9514 2.0019-2.5763 0.05196 0.14534 0.36514 1.0446 0.69595 1.9983 0.85191 2.4561 2.5805 5.9215 6.0549 12.138 4.4795 8.0155 6.0367 11.403 7.1074 15.462 0.96818 3.6706 0.98134 7.2045 0.03787 10.163-0.68701 2.1542-1.0907 2.7338-2.2849 3.2802-2.6322 1.2044-8.0201 1.7153-13.008 1.2335z" fill="#fea" filter="url(#a)" />
    </g>
</svg>
